<?xml version="1.0" encoding="UTF-8"?>
<svg id="Layer_1" xmlns="http://www.w3.org/2000/svg" version="1.1" viewBox="0 0 32 33">
  <!-- Generator: Adobe Illustrator 29.3.0, SVG Export Plug-In . SVG Version: 2.1.0 Build 146)  -->
  <defs>
    <style>
      .st0 {
        fill: #34559c;
      }
    </style>
  </defs>
  <g id="nw5dUk.tif">
    <g>
      <path class="st0" d="M14.6,1v3.3h2.9V1c2.1.1,4,.9,5.9,1.7.2.2-.9,1.4-.9,1.8s.9.7,1,.6.8-1.6,1-1.6c1.9,1.2,3.7,2.9,4.7,4.9-.5.3-1,.5-1.5.8s-.3,0-.2.2.5.8.5.9c.4,0,1.4-.8,1.9-.9.8,1.9,1.5,3.8,1.7,5.9h-3.2v2.9h3.2c0,2.1-.8,4-1.7,5.9-.5,0-1.5-1-1.9-.9s-.5.8-.5.9c-.1.3,1.6.7,1.6,1.2-1.2,1.9-2.8,3.5-4.7,4.7-.7-.6-.6-2.2-1.8-1.3s.7,1.4.7,2.1c-1.9.8-3.8,1.5-5.9,1.7v-3.3h-2.9v3.3c-2.1-.1-4-.9-5.9-1.7,0-.6,1.3-1.6.7-2.1-1.2-.9-1,.7-1.8,1.3-2-1.1-3.5-2.8-4.7-4.7,0-.4,1.8-.9,1.6-1.2s-.5-.8-.5-.9c-.5,0-1.7,1.1-1.9.9-.8-1.9-1.5-3.8-1.7-5.9h3.2v-2.9H.4c.1-2.1.9-4,1.7-5.9.5,0,1.5,1,1.9.9s.5-.8.5-.9c.1-.3,0-.2-.2-.2-.5-.3-1-.6-1.5-.7-.4-.5,3.9-4.7,4.7-4.9.2,0,.9,1.5,1,1.6s1-.3,1-.6-1.1-1.5-.9-1.8c1.9-.8,3.8-1.5,5.9-1.7ZM14.8,19.5c-1-.2-2.7.2-3.8,0l3.7-2.4c3.2-4.1-1.8-7-5.7-5.7s-3.9,4.7-.2,4.1.4-2.1,2.6-1.8,1.2,1.3.4,2.1c-1.2,1.2-3.4,1.7-4.7,3.3s-1.4,2.8.3,3,5-.2,7.3,0c1.2-.3,1.1-2.3,0-2.5ZM21.3,11.3c-.3,0-.8.4-1,.6-.6.6-4.1,5.4-4.2,5.9-.6,3,2.3,1.8,4.1,2s.7.6.9,1.4c.3,1.2,2.7,1.1,3,.3s0-1,.1-1.4,1.6-.3,1.4-1.6-1.3-.9-1.5-1.4c-.4-1.2.3-4.3-.1-5.3s-2.2-.7-2.8-.6Z"/>
      <path class="st0" d="M21,17.2c-.2.6-1.5.3-2,.4l2-2.7c-.1.6.2,1.8,0,2.3Z"/>
    </g>
  </g>
</svg>