<?xml version="1.0" encoding="UTF-8"?>
<svg id="Layer_1" xmlns="http://www.w3.org/2000/svg" version="1.1" viewBox="0 0 32 33">
  <!-- Generator: Adobe Illustrator 29.1.0, SVG Export Plug-In . SVG Version: 2.1.0 Build 142)  -->
  <defs>
    <style>
      .st0 {
        fill: #fff;
      }
    </style>
  </defs>
  <g id="HDKZSD.tif">
    <path class="st0" d="M31.07,27.21h-5.75c-.45,0-.22-1.44-1-1.77H7.75c-.81.34-.55,1.7-.87,1.77l-5.62-.04-.34-.28c.07-2.94-.36-6.41-.07-9.31.08-.8.44-1.66,1.17-2.06.32-.17.85-.12.96-.42.24-2.21-.26-4.89.03-7.05.13-.93.67-1.64,1.51-2.02h23.03c.77.2,1.37,1.13,1.49,1.89.36,2.14-.21,4.96.06,7.18.38.34.74.28,1.21.63s.76.86.88,1.43c0,3.34.21,6.74-.12,10.05ZM4.07,8.04v6.93c0,.34,1.15.38,1.31.25.4-.33.16-1.16.21-1.64.07-.62.78-1.38,1.38-1.54.71-.18,6.51-.19,7.22,0,1.34.35,1.72,1.95,1.53,3.16.98.21.52-.54.63-1.3.14-.98.9-1.82,1.9-1.94,1.11-.13,5.72-.17,6.72.04.53.11,1.11.64,1.35,1.11.38.77.18,1.43.45,2.17.84,0,1.15.2,1.24-.77.13-1.32.17-5.23-.02-6.47-.08-.49-.4-.84-.87-.98l-21.91-.04c-.56-.01-1.06.49-1.15,1ZM14.46,13.39c-.14-.17-.56-.33-.79-.36-1.92-.24-4.32.19-6.29.01-.51.1-.78.69-.84,1.17-.12.96.09,1.01.98,1.05,2.35.1,4.78-.22,7.14-.07-.05-.53.15-1.37-.2-1.8ZM17.42,15.2l7.59.15c.93-.08.62-2.13-.31-2.31-1.79-.34-4.54.24-6.44,0-.95.33-.89,1.3-.85,2.15ZM30.15,21.97v-4.85c0-.44-1.15-.95-1.61-.85-8.1.52-17.02-.67-25.02,0-.57.05-1.6.3-1.6,1.01v4.7h28.23ZM30.15,23.2H1.92v2.93h4.14c.07,0,.26-.79.61-1.16.32-.33.72-.58,1.17-.68,5.16.36,11.04-.51,16.11-.02.85.08,1.32.43,1.79,1.13.14.21.24.72.28.72h4.14v-2.93Z"/>
  </g>
</svg>