<?xml version="1.0" encoding="UTF-8"?>
<svg id="Layer_1" xmlns="http://www.w3.org/2000/svg" version="1.1" viewBox="0 0 32 33">
  <!-- Generator: Adobe Illustrator 29.1.0, SVG Export Plug-In . SVG Version: 2.1.0 Build 142)  -->
  <defs>
    <style>
      .st0 {
        fill: #fff;
      }
    </style>
  </defs>
  <g id="LiYxh0">
    <g>
      <path class="st0" d="M12.12,10.52c.13-.61,1.1-.76,1.19.1.38,3.46-.29,7.58,0,11.11.03.53-.5.82-.95.54l-4.2-4.22c-2.21-1.75-4.8.97-2.98,3.17,2.5,3.03,6.16,5.75,8.77,8.77.63.61,1.62.77,2.43.44,3.36-2.9,6.35-6.28,9.57-9.36,1.6-2.08-.81-4.59-2.98-3.17l-4.35,4.37c-.43.25-.89.05-.95-.45-.27-2.06.21-4.71.01-6.84.15-.9,1.18-.55,1.18-.1v5.3c.17.04.2-.07.3-.15.98-.75,1.89-2.07,2.87-2.88,3.27-2.68,7.56,1.43,4.66,4.86-2.6,3.07-6.18,5.81-8.87,8.87-1.52,1.26-3.31,1.23-4.76-.1-2.65-2.98-5.93-5.62-8.57-8.57-1.56-1.74-1.57-4.34.63-5.52,3.14-1.69,4.95,1.97,7,3.59v-9.76Z"/>
      <path class="st0" d="M24.88,7.32c3.43-.58,5.07,3.63,2.44,5.41s-5.84-1.11-4.38-3.88c.33-.63,1.23-1.41,1.94-1.53ZM24.14,11.43c.57.69,1.76.84,2.5.33,1.73-1.21.35-4-1.74-3.22-1.07.4-1.47,2.03-.76,2.89Z"/>
      <path class="st0" d="M21.8,2.18c2.72,2.96-2,7.17-4.62,3.88-2.33-2.93,2.04-6.69,4.62-3.88ZM19.43,2.37c-2.41.14-2.2,4.08.56,3.64,2.03-.33,1.8-3.78-.56-3.64Z"/>
      <path class="st0" d="M23.87,6.57c-1.67,2.17-3.4,4.3-5.07,6.47-.76.68-1.41-.39-.72-1.02L26.35,1.46c.48-.48,1.23-.07.98.58-1.16,1.5-2.3,3.02-3.46,4.52Z"/>
      <path class="st0" d="M13.19,8.86c-.33.32-1,.18-1.07-.42-.22-2.02.16-4.39,0-6.44.06-.85,1.13-.86,1.19,0-.13,2.06.17,4.32,0,6.35-.01.15-.02.41-.13.52Z"/>
    </g>
  </g>
</svg>