<?xml version="1.0" encoding="UTF-8"?>
<svg id="Layer_1" xmlns="http://www.w3.org/2000/svg" version="1.1" viewBox="0 0 32 33">
  <!-- Generator: Adobe Illustrator 29.1.0, SVG Export Plug-In . SVG Version: 2.1.0 Build 142)  -->
  <defs>
    <style>
      .st0 {
        fill: #fff;
      }
    </style>
  </defs>
  <g id="jjE621">
    <g>
      <path class="st0" d="M22.55,9.84h1.85c.11,0,.47.37.47.47v7.12h5.85c.59,0,.59,1.27,0,1.27h-2.06v12.81c0,.59-1.27.59-1.27,0v-12.81H9.84c-.51,0-.75-1.12,0-1.26,1.86-.14,3.97.18,5.8,0,1.69-.16,1.61-2.31.2-2.53-1.08-.17-4.59.25-5.25-.12-.43-.25-1.75-3.13-2.23-3.78-1.01-1.37-3.17-1.78-3.86.03-.26.67-.06.75-.08,1.28-.03.9-1.15.94-1.28-.1-.3-2.47,1.95-4.22,4.28-3.43,2.12.72,2.69,3.15,3.84,4.8.31.19,3.81-.03,4.58.06,1.88.22,2.86,2.13,1.96,3.79h5.8v-6.33h-1.48c-.29.87-.49,2.96-.95,3.64-.35.53-1.19.27-1.14-.4l3.03-11.42c.2-.84,1.39-.58,1.16.32l-1.69,6.59Z"/>
      <path class="st0" d="M8.42,23.13v5.01c.32.24.85.18,1.29.3,1.12.29,2.53.94,2.96,2.1.2.53.35,1.51-.5,1.45-.65-.04-.5-.7-.71-1.09-.99-1.9-6.22-1.91-7.31-.06-.25.42-.19,1.5-1.09,1.08-.58-.27-.29-1.17-.07-1.6.73-1.42,2.67-1.89,4.11-2.11l.05-5.07h-1.95c-.88,0-2.25-1.16-2.53-2.01L.84,12.41c0-.74.94-.93,1.21-.25l1.72,8.3c.18.77.88,1.33,1.65,1.41,2.14.23,4.69-.2,6.86,0,.6.05.63.14.8.68.71,2.25.89,5.02,1.64,7.22.49,1.45,2.33,1.22,2.57-.24l-2.11-9.5c-.03-.59.71-.91,1.1-.46.16.19.25.77.32,1.05.57,2.23,1.67,6.23,1.84,8.39.28,3.43-3.95,4.08-4.9,1.11-.67-2.09-.89-4.57-1.53-6.7l-.16-.26h-3.43Z"/>
      <path class="st0" d="M6.82,1.01c4.36-.42,4.71,6.19.39,6.3-3.94.11-4.36-5.92-.39-6.3ZM6.7,2.27c-2,.41-1.88,3.57.19,3.77,3.04.3,2.71-4.37-.19-3.77Z"/>
    </g>
  </g>
</svg>