<?xml version="1.0" encoding="UTF-8"?>
<svg id="Layer_1" xmlns="http://www.w3.org/2000/svg" version="1.1" viewBox="0 0 32 33">
  <!-- Generator: Adobe Illustrator 29.1.0, SVG Export Plug-In . SVG Version: 2.1.0 Build 142)  -->
  <defs>
    <style>
      .st0 {
        fill: #fff;
      }
    </style>
  </defs>
  <g id="W0dCWS">
    <g>
      <path class="st0" d="M19.55,16.26c-.21.21-.47.34-.64.59,2.37.64,4.3,2.76,4.7,5.18.08.46.34,1.83-.48,1.58-.34-.1-.27-1.15-.34-1.51-1.1-6.02-9.95-6.31-11.38-.27-.13.54-.12,1.07-.23,1.61-.12.26-.54.25-.68.01-.23-.38.1-1.83.24-2.29.64-2.04,2.4-3.76,4.48-4.31.05-.07-.67-.56-.75-.65-1.89-1.87-1.06-5.35,1.52-6.07,3.73-1.04,6.35,3.43,3.57,6.13ZM16.56,10.85c-3.38.43-2.93,5.94.79,5.58s3.26-6.09-.79-5.58Z"/>
      <path class="st0" d="M10.77,15.14l1.14.53c.32.19,1.47.85.81,1.25-.39.24-.61-.15-.91-.33-3.25-1.99-6.97-.2-7.53,3.52-.05.31.1.88-.39.91-.76.05-.35-1.59-.23-2.01.51-1.77,1.98-3.29,3.76-3.8-2.16-1.43-1.85-4.83.67-5.65,3.56-1.16,5.78,3.64,2.68,5.59ZM8.7,10.23c-2.64.38-2.5,4.56.39,4.59,3.22.03,2.97-5.08-.39-4.59Z"/>
      <path class="st0" d="M26.7,15.2c1.67.48,3.12,1.89,3.68,3.54.14.43.68,2.43-.21,2.26-.44-.08-.29-.61-.33-.9-.52-3.48-4.08-5.5-7.23-3.69-.27.15-1.04.89-1.31.46-.35-.55.69-1.07,1.1-1.29.3-.16.62-.34.96-.38l-.61-.51c-1.55-1.68-.87-4.56,1.38-5.18,3.54-.98,5.55,3.65,2.58,5.69ZM24.63,10.23c-2.81.38-2.48,5.03.85,4.54,2.71-.39,2.32-4.98-.85-4.54Z"/>
    </g>
  </g>
</svg>