<?xml version="1.0" encoding="UTF-8"?>
<svg id="Layer_1" xmlns="http://www.w3.org/2000/svg" version="1.1" viewBox="0 0 32 33">
  <!-- Generator: Adobe Illustrator 29.1.0, SVG Export Plug-In . SVG Version: 2.1.0 Build 142)  -->
  <defs>
    <style>
      .st0 {
        fill: #fff;
      }
    </style>
  </defs>
  <g id="eblXDY.tif">
    <g>
      <path class="st0" d="M30,28.49v1.49c-.16.63-.57,1.09-1.23,1.2l-24.18-.03c-1.45-.29-1.31-2.89-.65-3.76.31-.4.68-.6,1.1-.85.1-1.18-.1-2.5,0-3.66.08-.85.92-.55.92-.17v3.76h7.46v-5.19c0-.85.93-1.62,1.75-1.69s2.27-.06,3.1,0,1.8.81,1.8,1.69v5.19h7.46v-9.89s.16-.28.21-.31c.34-.22.69.06.71.42v9.86c.04.09.5.26.63.36.26.19.6.59.72.89l.2.69ZM19.16,26.48v-5.31s-.21-.38-.26-.43c-.1-.11-.38-.25-.53-.27-.61-.1-2.36-.07-3.03-.02-.27.02-.5.08-.71.26-.08.07-.29.37-.29.46v5.31h4.82ZM5.44,27.41c-.45.07-.93.49-1,.95-.04.26-.06,1.35-.01,1.59.03.16.27.35.43.37h23.68c.2.03.5-.18.54-.37.06-.3.02-1.53-.09-1.81-.16-.41-.57-.65-.98-.74H5.44Z"/>
      <path class="st0" d="M24.44,1.82c1.26.23,2.24,1.26,2.35,2.55v4.88c.2.26.51.42.74.69,1.06,1.17,1.06,3.37.92,4.88-.07.71-.8.75-.91.1-.19-1.16.26-2.61-.23-3.72-.35-.8-1.22-1.45-2.1-1.51-5.77.05-11.56-.08-17.32.06-.97.28-1.7,1.06-1.91,2.05v9.16c-.06.66-.86.76-.93.06.15-2.87-.19-5.93,0-8.78.08-1.23.64-2.24,1.66-2.93v-4.93c.06-1.2,1.17-2.41,2.36-2.55h15.37ZM25.93,8.93v-4.62c0-.73-1.02-1.63-1.75-1.63h-14.74c-.77-.06-1.86.87-1.86,1.63v4.62l.94-.17h16.52s.89.17.89.17Z"/>
      <path class="st0" d="M16,12.1c.99-.12,2.42-.13,2.79,1.02.15.46.15,2.87.02,3.35-.2.76-.83,1.08-1.57,1.13-.95.07-2.18.05-2.53-1.04-.15-.45-.15-2.93-.01-3.4.17-.59.69-.99,1.29-1.06ZM16.17,12.96c-.29.04-.55.17-.61.48l.02,2.9c.08.16.22.31.41.34.23.04,1.44.04,1.63-.02.15-.05.32-.25.34-.41l-.02-2.9c-.15-.5-1.35-.44-1.77-.38Z"/>
      <path class="st0" d="M8.89,12.1c.42-.06,1.51-.06,1.91.07.43.14.81.52.95.95.15.47.14,2.57.07,3.11-.12.89-.77,1.31-1.62,1.37-1.29.09-2.51-.04-2.61-1.58-.04-.6-.07-2.4.09-2.9.17-.54.66-.94,1.22-1.02ZM9.12,12.96c-.26.04-.48.13-.59.39-.14.33-.13,2.11-.09,2.55.03.32.12.71.49.77.23.04,1.44.04,1.63-.02.15-.05.32-.25.34-.41l-.02-2.9c-.15-.5-1.35-.44-1.77-.38Z"/>
      <path class="st0" d="M23.05,12.1c1.03-.13,2.4-.14,2.79,1.02.15.44.15,2.88.02,3.35-.2.77-.82,1.08-1.57,1.13-.97.07-2.12.05-2.5-1-.19-.52-.16-2.37-.11-2.99.06-.8.55-1.4,1.37-1.5ZM23.22,12.96c-.29.04-.55.17-.61.48l.02,2.9c.08.16.22.31.41.34.23.04,1.44.04,1.63-.02.27-.08.37-.44.4-.69.05-.55.05-1.63,0-2.18-.02-.26-.08-.57-.33-.71-.29-.17-1.18-.16-1.53-.11Z"/>
      <path class="st0" d="M22.94,19.61c.37-.05,1.5-.06,1.85.01.66.14,1.09.79,1.15,1.44s.07,2,0,2.63c-.06.52-.4,1.04-.88,1.24-.37.16-1.75.17-2.17.1s-.91-.49-1.06-.89c-.2-.51-.18-2.41-.13-3.03.06-.73.48-1.39,1.25-1.5ZM22.74,20.65c-.08.08-.12.18-.14.29-.07.57-.06,2.12,0,2.7.03.32.23.5.55.54.29.03,1.03.03,1.32,0,.46-.06.57-.36.6-.77.05-.57.04-1.56,0-2.13-.03-.43-.11-.77-.6-.83-.27-.03-1.12-.04-1.37,0-.1.02-.29.12-.36.19Z"/>
      <path class="st0" d="M8.77,19.61c.39-.07,1.67-.05,2.03.06.65.2.97.8,1.02,1.44s.07,2.59-.16,3.11c-.15.33-.55.67-.9.77s-1.69.1-2.04.03c-.67-.14-1.09-.79-1.15-1.44s-.07-2.06.02-2.68.57-1.19,1.17-1.29ZM8.94,20.47c-.39.08-.47.41-.5.76-.05.57-.05,1.61,0,2.18.03.37.13.7.55.77.26.04,1.34.03,1.56-.04.19-.06.34-.24.36-.44l-.03-2.9c-.09-.18-.26-.31-.46-.34-.25-.04-1.23-.04-1.47,0Z"/>
      <path class="st0" d="M14.34,3.67c1.74-.06,2.77,1.92,1.72,3.33-.99,1.33-3.11.94-3.61-.62-.41-1.29.52-2.67,1.89-2.71ZM14.1,4.58c-1.15.23-1.16,2.16.11,2.33,1.89.26,1.83-2.73-.11-2.33Z"/>
      <path class="st0" d="M11.02,5.26v-1.35s.19-.18.26-.21c.35-.13.58.17.61.49.09,1.03-.07,2.21-.01,3.26-.12.52-.85.34-.85.07v-1.41h-1.43v1.41c0,.31-.74.43-.85-.07.05-1.05-.11-2.23-.01-3.26.03-.32.26-.62.61-.49.06.02.26.17.26.21v1.26s.08.09.09.09h1.35Z"/>
      <path class="st0" d="M20.71,4.57v.75h.95c.31,0,.53.77,0,.86-.2.03-.78-.05-.89.03s-.03.56-.05.72h1c.38,0,.51.69.19.82-.15.06-1.54.07-1.73.04-.23-.04-.3-.29-.32-.48-.07-.77-.07-2.33,0-3.1.02-.22.09-.42.33-.47.2-.04,1.38-.04,1.58,0,.52.12.31.85.01.85h-1.06Z"/>
      <path class="st0" d="M18.36,4.57v2.78c0,.35-.38.54-.69.4-.05-.02-.23-.25-.23-.29v-2.9c-.43.04-.97-.03-.85-.59.06-.29.34-.31.59-.33.4-.03,1.16-.04,1.55,0,.9.1.46,1.17-.37.92Z"/>
      <path class="st0" d="M23.64,6.92c.27.01.54-.03.8.03.45.11.44.78-.03.84-.26.03-1.36.05-1.52-.09-.04-.04-.07-.09-.09-.14v-3.63c.13-.43.83-.21.83.1v2.9Z"/>
    </g>
  </g>
</svg>