<?xml version="1.0" encoding="UTF-8"?>
<svg id="Layer_1" xmlns="http://www.w3.org/2000/svg" version="1.1" viewBox="0 0 32 33">
  <!-- Generator: Adobe Illustrator 29.1.0, SVG Export Plug-In . SVG Version: 2.1.0 Build 142)  -->
  <defs>
    <style>
      .st0 {
        fill: #fff;
      }
    </style>
  </defs>
  <g id="na17dO">
    <g>
      <path class="st0" d="M17,1.24c.43.12.92.11,1.37.18,5.85.89,10.8,5.25,12.41,10.94,2.48,8.76-3.05,17.69-11.93,19.37l-1.85.26c-.66-.03-1.34.04-1.99,0C5.73,31.4-.91,22.63.94,13.5,2.29,6.8,8.18,1.67,15,1.24h1.99ZM14.99,2.29C4.74,2.96-1.47,14.1,3.25,23.23c4.93,9.55,18.49,10.43,24.57,1.54,6.8-9.96-.85-23.25-12.83-22.47Z"/>
      <path class="st0" d="M21.24,16.23c-.13.22.05,1.22.07,1.53.04,1.01.03,2.02.07,3.03.05,1.23.29,2.75.22,3.96-.1,1.98-3.22,2.18-3.48.1l.37-8.51c-1.99-1.22-1.64-3.97-.87-5.84s3.33-2.16,4.28-.34c.82,1.57,1.24,4.4-.16,5.74-.12.11-.49.31-.5.33ZM20.4,25.12c.09-.1.19-.5.18-.65-.04-2.86-.42-5.73-.4-8.6.07-.46.64-.49.95-.8.86-.89.42-3.69-.25-4.61-.61-.83-1.87-.59-2.28.33-.45.99-.85,3.07-.25,4.03.32.5,1.13.68,1.18,1.14-.17,2.39-.23,4.78-.31,7.17-.02.71-.49,2.35.75,2.18.09-.01.37-.12.42-.18Z"/>
      <path class="st0" d="M12.67,25.11c.38-.38.12-1.35.1-1.84-.1-2.56-.22-5.14-.35-7.71.07-.5,1.24-1.34,1.54-1.8l.03-4.51c.31-.52.93-.37,1.01.23.11.76.11,3.78-.01,4.52-.12.69-1.16,1.28-1.54,1.85l.44,9c-.23,1.54-2.23,2.05-3.14.76-.52-.74-.23-1.9-.21-2.74.08-2.31.2-4.62.32-6.94-.07-.52-1.42-1.27-1.51-1.83-.22-1.38.16-3.27,0-4.7.07-.61.94-.59,1.04,0l.02,4.44c.28.47,1.42,1.2,1.49,1.69l-.46,9.06c.07.62.77.97,1.23.51Z"/>
      <path class="st0" d="M23.27,9.86c.38-.11.51.1.74.34,2.63,2.83,2.8,7.86,1.07,11.18-.28.54-1.43,2.3-1.91,2.55-.45.24-.92-.15-.8-.55.09-.28,1.08-1.3,1.34-1.69,1.86-2.78,1.99-6.52.42-9.46-.23-.44-1.02-1.35-1.12-1.67-.08-.26-.05-.61.26-.7Z"/>
      <path class="st0" d="M9.49,23.85c-.51.54-1.23-.49-1.53-.86-2.27-2.89-2.82-6.73-1.48-10.15.17-.43,1.03-2.21,1.38-2.37.42-.2.86.04.78.53-.03.19-.76,1.23-.92,1.56-1.75,3.61-.98,7.87,1.83,10.68.08.16.06.49-.06.61Z"/>
      <path class="st0" d="M18.65,6.75c.2.19.19.59-.02.78-.31.28-1.04-.04-1.44-.08-1.05-.1-2.03-.09-3.07.12-.53.1-1.99.86-2.07,0-.05-.56.98-.77,1.42-.88,1.13-.29,2.48-.39,3.64-.26.27.03,1.39.2,1.53.34Z"/>
      <path class="st0" d="M11.16,8.98c.43-.13.69.08.74.5.15,1.28-.11,2.83,0,4.14-.25.63-.96.53-1.04-.16-.1-.84-.1-3.15,0-3.99.02-.18.1-.44.3-.5Z"/>
      <path class="st0" d="M13.31,9.06c.09.09.09.29.1.42.08.97.11,3.12,0,4.07-.09.74-.92.67-1.03-.09s-.09-3,0-3.82c.01-.14.11-.54.21-.6.16-.1.59-.11.73.03Z"/>
      <path class="st0" d="M14.74,25.8c.36-.08,1.13.07,1.58.07.32,0,.6-.14.94-.07.57.13.49.93-.07,1.01-.63.1-1.74.1-2.37-.01s-.63-.88-.08-1Z"/>
    </g>
  </g>
</svg>