<?xml version="1.0" encoding="UTF-8"?>
<svg id="Layer_1" xmlns="http://www.w3.org/2000/svg" version="1.1" viewBox="0 0 32 33">
  <!-- Generator: Adobe Illustrator 29.3.0, SVG Export Plug-In . SVG Version: 2.1.0 Build 146)  -->
  <defs>
    <style>
      .st0 {
        fill: #34559c;
      }
    </style>
  </defs>
  <g id="jIf4iz.tif">
    <g>
      <path class="st0" d="M21.1,11.4l7.7,2.1c.6.3.8.9.5,1.5l-5,6.2c0,1.8.1,3.5.2,5.3s.2,1.8.2,2.6-.5,1.1-1.1,1.1c-2.6-.9-5.1-2-7.7-2.9l-7.2,2.8c-.7.3-1.5-.2-1.5-1s0-.2,0-.3c0-2.5.3-5.1.4-7.6l-5-6.2c-.4-.8,0-1.3.8-1.6,2.4-.8,5-1.2,7.4-2l4.2-6.5c.3-.5,1.1-.6,1.5-.3,1.6,2.2,3,4.5,4.5,6.8ZM17.9,13.7h-2.5c-.5.7-1,1.4-1.5,2.1s-2.1,3.3-2.1,3.5v1.5c0,.2.6,0,.7,0,.8,0,1.5,0,2.3,0s.9,0,1.3,0v1.6h1.7s0,0,0,0v-1.5c.2,0,.5,0,.7,0s.5.1.5,0v-1.4s0,0,0,0h-1.1v-5.7Z"/>
      <path class="st0" d="M13.5,19.5c.6-1.1,1.2-2.2,1.9-3.3s.5-.8.8-1v4.3s-2.7,0-2.7,0Z"/>
    </g>
  </g>
</svg>