<?xml version="1.0" encoding="UTF-8"?>
<svg id="Layer_1" xmlns="http://www.w3.org/2000/svg" version="1.1" viewBox="0 0 32 33">
  <!-- Generator: Adobe Illustrator 29.3.0, SVG Export Plug-In . SVG Version: 2.1.0 Build 146)  -->
  <defs>
    <style>
      .st0 {
        fill: #34559c;
      }
    </style>
  </defs>
  <g id="_x36_QCAJJ.tif">
    <g>
      <path class="st0" d="M25.6,14c1.1,1,3.3,1.2,4.5,1.9s.6,1.1,0,1.4c-1.7.9-4.4.9-5.3,2.9s1.1,3.9,1.6,5.8-.2,1.2-.9,1.1c-1.2-.2-2.9-1.7-4.2-1.8-3.6-.5-3.5,3.2-4.6,5.3s-1.1.7-1.5,0c-.7-1.4-.9-3.6-2.1-4.7-2.2-1.9-4.6.3-6.7,1.1-.5.1-.9-.2-1-.7.3-1.5,2-3.5,2-5,0-3-3.5-3-5.4-4s-.7-1-.2-1.4c1.8-.9,4.7-1,5.4-3.2s-1.2-3.7-1.7-5.4,0-1.2.8-1.2c2.2.7,4.4,3,6.7,1.2s1.5-3.4,2.2-4.8,1.1-.7,1.5,0c1.1,2.2,1,5.9,4.7,5.3s2.9-1.6,4.1-1.8,1,.4.9,1c-.6,2.2-3.3,4.5-.9,6.8ZM14.7,13.3c0-1-.8-1.7-1.7-1.7s-1.7.8-1.7,1.7.8,1.7,1.7,1.7,1.7-.8,1.7-1.7ZM21.1,13.3c0-1-.8-1.7-1.7-1.7s-1.7.8-1.7,1.7.8,1.7,1.7,1.7,1.7-.8,1.7-1.7ZM12.9,17.3c-.8.4-.5,1.6-.3,2.3,1.2,3.2,6.1,3,7.1-.2.2-.6.4-1.9-.4-2.1h-6.4Z"/>
      <path class="st0" d="M1.1,9.6c.2,0,.3,0,.5,0,.3,0,2.5,1.3,2.9,1.6.6.4.6,1.1-.1,1s-3.2-.7-3.4-.8c-.8-.5-.7-1.6.1-1.8Z"/>
      <path class="st0" d="M31.3,22.1c0-.1-.2-.3-.3-.4-.3-.2-2.7-.8-3.2-.9-.7-.1-1.2.3-.7.8s2.7,1.8,3,1.8c.9.2,1.6-.7,1.2-1.4Z"/>
      <path class="st0" d="M4.1,21c.5,0,1.1.2.7.7s-2.2,1.4-2.5,1.6c-.5.3-1,.6-1.5.2s-.5-1.3,0-1.6,2.6-.8,3.2-.9Z"/>
      <path class="st0" d="M9.8.9c.6-.1,1.1.1,1.3.7s.7,2.6.7,3.1c0,.8-.6.8-1,.2s-1.5-2.4-1.6-2.8.1-1.1.6-1.2Z"/>
      <path class="st0" d="M20.9,27.8c.2,0,.3,0,.5.2.2.2,1.7,2.7,1.8,2.9.4,1.4-1.4,1.9-1.9.6s-.7-2.6-.8-3.1.1-.6.4-.6Z"/>
      <path class="st0" d="M11.2,27.8c.3,0,.6.3.6.6,0,.5-.5,2.4-.7,2.9s-.2.5-.2.6c-.6.9-2.1.3-1.7-.9s1.6-2.7,1.8-2.9.2-.2.3-.2Z"/>
      <path class="st0" d="M23,1.2c.3.3.3.9.1,1.3s-1.3,2.2-1.6,2.6c-.5.6-.8.5-1-.2l.9-3.4c.3-.6,1.1-.8,1.6-.3Z"/>
      <path class="st0" d="M30.7,9.6c1.2-.2,1.7,1.6.2,2s-2.3.6-2.9.7-1-.5-.3-1,1.9-1.2,2.4-1.5.4-.2.6-.2Z"/>
    </g>
  </g>
</svg>