<?xml version="1.0" encoding="UTF-8"?>
<svg id="Layer_1" xmlns="http://www.w3.org/2000/svg" version="1.1" viewBox="0 0 32 33">
  <!-- Generator: Adobe Illustrator 29.1.0, SVG Export Plug-In . SVG Version: 2.1.0 Build 142)  -->
  <defs>
    <style>
      .st0 {
        fill: #fff;
      }
    </style>
  </defs>
  <g id="pZlQJ0.tif">
    <g>
      <path class="st0" d="M16.27.62c1.87.41,2.49,2.78.91,3.95-.23.17-.46.21-.66.38v2.89c1.83.17,3.49.88,4.91,2.02l2.03-2.02c.05-.12-.21-.7-.22-.95-.08-1.99,2.36-3.11,3.76-1.68s.27,3.82-1.71,3.73c-.25-.01-.83-.27-.95-.22l-2.02,2.03c1.14,1.42,1.85,3.09,2.02,4.92h2.89c.18-.2.22-.44.38-.66,1.48-1.99,4.6-.4,3.83,1.99-.54,1.65-2.75,1.98-3.8.61-.18-.24-.23-.48-.41-.69h-2.89c-.18,1.79-.84,3.5-2.02,4.87-.03.14,1.81,1.8,2.02,2.08.42-.04.79-.24,1.25-.21,1.83.13,2.69,2.42,1.41,3.72s-3.62.47-3.76-1.38c-.03-.46.17-.83.21-1.25l-1.96-1.97-.12-.05c-1.38,1.18-3.07,1.84-4.87,2.02v2.89c.22.18.46.23.7.41,1.96,1.5.31,4.62-2.07,3.78-1.64-.57-1.92-2.78-.53-3.81.23-.17.46-.21.66-.38v-2.89c-1.83-.17-3.49-.88-4.91-2.02l-2.03,2.02c.04.42.24.79.21,1.25-.13,1.83-2.41,2.7-3.72,1.41-1.39-1.36-.35-3.85,1.61-3.76.24.01.9.27,1.01.22l2.02-2.03c-1.14-1.42-1.85-3.09-2.02-4.92h-2.89c-.18.2-.22.44-.38.66-1.17,1.58-3.54.95-3.95-.91v-.74c.41-1.87,2.78-2.49,3.95-.91.17.23.21.46.38.66h2.89c.17-1.83.88-3.49,2.02-4.91l-2.02-2.03c-.12-.05-.7.21-.95.22-1.98.08-3.1-2.31-1.71-3.73s3.85-.32,3.76,1.68c-.01.25-.27.83-.22.95l2.03,2.02c1.42-1.14,3.09-1.85,4.92-2.02v-2.89c-.2-.18-.44-.22-.66-.38-1.58-1.17-.95-3.54.91-3.95h.74ZM15.76,1.86c-1.19.18-1,2.04.28,1.88,1.19-.15.97-2.06-.28-1.88ZM6.08,5.85c-.94.19-.91,1.8.25,1.85,1.36.06,1.23-2.16-.25-1.85ZM25.2,5.85c-.96.2-.91,1.85.23,1.85,1.38,0,1.23-2.15-.23-1.85ZM17.86,18.39c1.46.45,2.55,1.6,3.22,2.94,3.55-3.64,2.29-9.74-2.4-11.69-5.84-2.44-11.81,3.38-9.52,9.28,1.7,4.38,7.02,5.96,10.91,3.33-.86-2.68-4.03-3.77-6.45-2.37-.43.25-1.07.97-1.5.31-.57-.86,1.07-1.4,1.58-1.77-1.84-1.83-.61-4.99,1.99-5.06s3.96,3.14,2.18,5.03ZM15.58,14.61c-2.16.2-1.93,3.49.22,3.42,2.27-.08,2.11-3.63-.22-3.42ZM2.1,15.4c-.87.2-.85,1.71.11,1.83,1.59.2,1.45-2.18-.11-1.83ZM29.12,15.4c-.89.18-.9,1.74.17,1.83,1.5.12,1.38-2.15-.17-1.83ZM6.37,24.92c-1.2,0-1.25,1.7-.24,1.86,1.43.23,1.54-1.86.24-1.86ZM25.43,24.92c-1.3,0-1.18,2.09.24,1.86,1.01-.16.96-1.86-.24-1.86ZM15.7,28.89c-1.12.2-.9,2,.28,1.88,1.27-.12,1.06-2.12-.28-1.88Z"/>
      <path class="st0" d="M11.35,20.37c1.01-.3,1.12,1.29.19,1.2-.7-.07-.71-1.04-.19-1.2Z"/>
    </g>
  </g>
</svg>