<?xml version="1.0" encoding="UTF-8"?>
<svg id="Layer_1" xmlns="http://www.w3.org/2000/svg" version="1.1" viewBox="0 0 32 33">
  <!-- Generator: Adobe Illustrator 29.1.0, SVG Export Plug-In . SVG Version: 2.1.0 Build 142)  -->
  <defs>
    <style>
      .st0 {
        fill: #fff;
      }
    </style>
  </defs>
  <g id="W0dCWS">
    <path class="st0" d="M18.49,16.26c-.21.21-.47.34-.64.59,2.37.64,4.3,2.76,4.7,5.18.08.46.34,1.83-.48,1.58-.34-.1-.27-1.15-.34-1.51-1.1-6.02-9.95-6.31-11.38-.27-.13.54-.12,1.07-.23,1.61-.12.26-.54.25-.68.01-.23-.38.1-1.83.24-2.29.64-2.04,2.4-3.76,4.48-4.31.05-.07-.67-.56-.75-.65-1.89-1.87-1.06-5.35,1.52-6.07,3.73-1.04,6.35,3.43,3.57,6.13ZM15.51,10.85c-3.38.43-2.93,5.94.79,5.58s3.26-6.09-.79-5.58Z"/>
  </g>
</svg>