<?xml version="1.0" encoding="UTF-8"?>
<svg id="Layer_1" xmlns="http://www.w3.org/2000/svg" version="1.1" viewBox="0 0 32 33">
  <!-- Generator: Adobe Illustrator 29.3.0, SVG Export Plug-In . SVG Version: 2.1.0 Build 146)  -->
  <defs>
    <style>
      .st0 {
        fill: #34559c;
      }
    </style>
  </defs>
  <g id="GtxgKa.tif">
    <path class="st0" d="M25.1,25.2v2.6c0,.4-.6.8-.9.9s-1.9.1-2.4,0-1.2-.6-1.2-1.2v-2.4h-10.2v2.4s-.1.4-.1.4c-.2.4-.6.7-1,.7s-1.8,0-2.3,0-1-.5-1.1-1,0-.9,0-1.2c0-.5,0-.9,0-1.4-.7,0-1.4,0-2-.5s-.8-.9-.9-1.6c-.2-2.2.1-4.6,0-6.8,0-.9.6-1.6,1.4-1.9s.4,0,.5-.2l2-7.5c.3-1.3,1.4-2.2,2.7-2.4h11.6c1.3.1,2.3.9,2.8,2.2l2,7.7c0,.2.2.1.4.2.9.3,1.4,1,1.5,1.9-.1,2.2.2,4.6,0,6.8s-.5,1.4-1.1,1.7-1.2.3-1.8.3ZM23.9,14.4l-1.9-7.2c-.2-.4-.5-.6-.9-.6h-11.1c-.5,0-.9.4-1,.8l-1.8,6.9h16.7ZM10,19.8c0-1.1-.9-1.9-1.9-1.9s-1.9.9-1.9,1.9.9,1.9,1.9,1.9,1.9-.9,1.9-1.9ZM24.9,19.8c0-1.1-.9-1.9-1.9-1.9s-1.9.9-1.9,1.9.9,1.9,1.9,1.9,1.9-.9,1.9-1.9Z"/>
  </g>
</svg>