<?xml version="1.0" encoding="UTF-8"?>
<svg id="Layer_1" xmlns="http://www.w3.org/2000/svg" version="1.1" viewBox="0 0 32 33">
  <!-- Generator: Adobe Illustrator 29.1.0, SVG Export Plug-In . SVG Version: 2.1.0 Build 142)  -->
  <defs>
    <style>
      .st0 {
        fill: #fff;
      }
    </style>
  </defs>
  <g id="nCh8yk">
    <g>
      <path class="st0" d="M7.18,28.59c-.03.52.23,1.78-.62,1.73-.73-.05-.59-1.61-.54-2.16.1-1.05.96-.64,1.73-.72l-.02-.22-4.29-5.12c-.21-.33-.43-.69-.57-1.06-.44-1.16-.48-5.34-.15-6.53.18-.62,1.41-3.29,1.77-3.8.66-.92,1.73-.48,2.47.09,1.65,1.26.54,2.93.3,4.55.49.05.95.23,1.34.53,1.02.78,3.84,3.63,4.65,4.66,1.4,1.75.6,4.81.81,6.91.59-.02,1.07-.08,1.15.62.06.47.12,1.98-.31,2.19-.98.46-.88-1.1-.84-1.66h-6.91ZM8.91,27.44c.14.14,3.53-.11,4.03,0v-4.94c0-.39-.46-1.17-.72-1.49-.84-1.04-2.99-3.17-4.03-4.03-.55-.46-1.03-.74-1.68-.24-1.15.87-.04,1.82.61,2.51.37.39,1.72,1.47,1.76,1.92.04.48-.5.78-.89.52-1.2-1.5-4.27-3.1-2.68-5.37.16-.22.77-.66.79-.74.06-.18-.01-.43.04-.63.35-1.44,1.41-3.05-.69-3.62l-1.71,3.72c.15,2.47-.67,4.7.94,6.79,1.28,1.67,2.85,3.21,4.13,4.89.16.14.05.69.09.73Z"/>
      <path class="st0" d="M18.7,28.59c.04.56.14,2.12-.84,1.66-.43-.2-.37-1.72-.31-2.19.08-.7.56-.64,1.15-.62.21-2.1-.58-5.16.81-6.91.77-.97,3.75-4,4.7-4.7.39-.29.91-.46,1.39-.48-.46-1.55-1.37-3.31.2-4.55.73-.58,1.82-1,2.47-.09.35.48,1.6,3.19,1.77,3.8.29,1.02.27,4.16.16,5.3-.24,2.65-3.77,5.23-5.16,7.41l-.02.22c.77.08,1.64-.34,1.73.72.05.55.19,2.12-.54,2.16-.85.05-.58-1.2-.62-1.73h-6.91ZM19.85,22.49c-.19,1.51.14,3.39,0,4.94h4.03s-.07-.61.09-.73c1.31-1.81,3.22-3.5,4.46-5.33.29-.43.54-.88.61-1.41.13-.94.13-4.57-.15-5.37-.38-1.07-1.19-2.19-1.55-3.29-.59.13-1.32.65-1.33,1.29,0,.49.5,1.75.63,2.33.05.21-.02.46.04.63.03.08.64.52.79.74,1.59,2.28-1.47,3.87-2.68,5.37-.73.34-1.12-.37-.67-.96.66-.79,1.8-1.6,2.4-2.4.41-.55.3-1.18-.24-1.59-.66-.5-1.13-.22-1.68.24-1.04.86-3.19,2.99-4.03,4.03-.31.38-.66,1-.72,1.49Z"/>
      <path class="st0" d="M19.87,18.58c-.12-.12-.4-.87-.56-1.12-1.31-2.03-4.46-2.06-5.8-.06-.31.46-.45,1.4-1.08,1.28-1.17-.22.24-2.19.69-2.63.35-.34.86-.57,1.25-.86-2.63-2.31-.34-6.54,3.05-5.45,2.36.76,2.83,3.87.98,5.45.92.46,2.37,1.8,2.4,2.88.02.53-.62.81-.94.5ZM15.99,10.76c-2.37.4-2.02,4.25.64,4s2.22-4.49-.64-4Z"/>
      <path class="st0" d="M12.15,2.7c3.01-.41,4.87,3.1,2.81,5.3-1.46,1.56-3.67.48-5.42,2.16-.39.37-.7,1.3-1.37.98-.94-.44.62-1.84,1.04-2.18s.88-.53,1.33-.78c-1.96-1.74-.99-5.14,1.61-5.49ZM12.24,3.85c-2.38.41-2.01,4.25.64,4s2.21-4.48-.64-4Z"/>
      <path class="st0" d="M22.35,8.82c.66.12,2.39,1.43,2.41,2.06,0,.35-.27.65-.62.62-.34-.02-.87-.83-1.21-1.09-1.44-1.09-2.29-.56-3.71-.99-2.42-.73-3-3.93-1.02-5.5,2.6-2.07,6.25.8,4.82,3.86-.1.22-.7.95-.64,1.03ZM19.73,4.43c-2.37.4-2.02,4.25.64,4s2.21-4.48-.64-4Z"/>
    </g>
  </g>
</svg>