<?xml version="1.0" encoding="UTF-8"?>
<svg id="Layer_1" xmlns="http://www.w3.org/2000/svg" version="1.1" viewBox="0 0 32 33">
  <!-- Generator: Adobe Illustrator 29.3.0, SVG Export Plug-In . SVG Version: 2.1.0 Build 146)  -->
  <defs>
    <style>
      .st0 {
        fill: #fff;
      }

      .st1 {
        fill: #34559c;
      }
    </style>
  </defs>
  <g id="LiYxh0">
    <g>
      <path class="st0" d="M12.1,10.5c.1-.6,1.1-.8,1.2.1.4,3.5-.3,7.6,0,11.1,0,.5-.5.8-.9.5l-4.2-4.2c-2.2-1.8-4.8,1-3,3.2,2.5,3,6.2,5.8,8.8,8.8.6.6,1.6.8,2.4.4,3.4-2.9,6.4-6.3,9.6-9.4,1.6-2.1-.8-4.6-3-3.2l-4.4,4.4c-.4.2-.9,0-1-.5-.3-2.1.2-4.7,0-6.8.1-.9,1.2-.6,1.2-.1v5.3c.2,0,.2,0,.3-.1,1-.8,1.9-2.1,2.9-2.9,3.3-2.7,7.6,1.4,4.7,4.9-2.6,3.1-6.2,5.8-8.9,8.9-1.5,1.3-3.3,1.2-4.8-.1-2.6-3-5.9-5.6-8.6-8.6-1.6-1.7-1.6-4.3.6-5.5,3.1-1.7,4.9,2,7,3.6v-9.8Z"/>
      <path class="st0" d="M24.9,7.3c3.4-.6,5.1,3.6,2.4,5.4s-5.8-1.1-4.4-3.9c.3-.6,1.2-1.4,1.9-1.5ZM24.1,11.4c.6.7,1.8.8,2.5.3,1.7-1.2.4-4-1.7-3.2-1.1.4-1.5,2-.8,2.9Z"/>
      <path class="st0" d="M21.8,2.2c2.7,3-2,7.2-4.6,3.9-2.3-2.9,2-6.7,4.6-3.9ZM19.4,2.4c-2.4.1-2.2,4.1.6,3.6,2-.3,1.8-3.8-.6-3.6Z"/>
      <path class="st0" d="M23.9,6.6c-1.7,2.2-3.4,4.3-5.1,6.5-.8.7-1.4-.4-.7-1L26.4,1.5c.5-.5,1.2,0,1,.6-1.2,1.5-2.3,3-3.5,4.5h0Z"/>
      <path class="st0" d="M13.2,8.9c-.3.3-1,.2-1.1-.4-.2-2,.2-4.4,0-6.4,0-.9,1.1-.9,1.2,0-.1,2.1.2,4.3,0,6.3,0,.1,0,.4-.1.5h0Z"/>
    </g>
  </g>
  <g>
    <path class="st1" d="M6.8,26.6c-.3,0-1.3-.6-1.6-.8-1.2-.9-1.5-2.1-1.5-3.6s-.2-4.9.8-6.6c2.7-4.9,8.9-2.7,13.4-3.2,1.1.2,2.3.7,3.2,1.5s.8,1.1.3,1.6c-.9.9-1.6-.2-2.4-.6s-1.2-.4-1.8-.5c-1.6-.1-6.9-.2-8.3.2s-2.9,2-3,3.7-.1,3.4,0,4.6c.3,2.5,3.9,1.5,5.6,1.7.2,0,.7-1.7.6-2s0-.2-.1-.2h-2.7c0,0-.8-.4-.9-.5-.4-.5-.5-3.1-.2-3.6.5-.9,1.9-.3,1.9.2v1.7c0,.1.2.1.3.1.3,0,2.3,0,2.4,0,.4-.8.5-3.2,1.5-3.3h14.4c1,.2.9.8.7,1.6-.7,3.3-2.2,6.8-2.9,10.2-.2.7-.2,1-1.1,1.1H5.6c-.7-.2-.9-1.2-.3-1.5s4.2.1,5.2-.2c0,0,.3-.9.4-1.1s0-.2,0-.4h-4Z"/>
    <circle class="st1" cx="13.5" cy="5.8" r="5.4"/>
  </g>
</svg>