<?xml version="1.0" encoding="UTF-8"?>
<svg id="Layer_1" xmlns="http://www.w3.org/2000/svg" version="1.1" viewBox="0 0 558.5 158.6">
  <!-- Generator: Adobe Illustrator 29.1.0, SVG Export Plug-In . SVG Version: 2.1.0 Build 142)  -->
  <defs>
    <style>
      .st0 {
        fill: #1257a6;
      }

      .st1, .st2 {
        isolation: isolate;
      }

      .st3, .st2 {
        fill: #f2c51c;
      }

      .st2 {
        font-family: RedondaTest-Light, 'Redonda Test';
        font-size: 6.4px;
        font-weight: 300;
      }
    </style>
  </defs>
  <path class="st3" d="M229.4,18H33.9c-8.6,0-14.8,8.1-12.7,16.4,6,23,18,64.9,31.9,92.7,5.9,11.7,12.1,20.8,18.3,24.9,23,15.2,36.2-39.9,54.4-49.4v.6c2-1.3,3.9-1.9,5.8-2,1.9.1,3.8.7,5.8,2v-.6c10.6,5.5,19.5,26.6,29.6,40.1,1.4,1.9,4,2.7,6.2,1.8,0,0,0,0,0,0,10.7-4.5,14.5-16.4,24.4-8.2,1.6,1.4,3.4,2.6,5.1,3.6,2.5-3.7,4.9-8.1,7.3-12.8,13.9-27.7,25.9-69.7,31.9-92.7,2.2-8.3-4.1-16.4-12.7-16.4h0ZM157.7,107.9c-6.6,0-11.9-5.3-11.9-11.9s5.3-11.9,11.9-11.9,11.9,5.3,11.9,11.9-5.3,11.9-11.9,11.9h0Z"/>
  <g class="st1">
    <path class="st0" d="M280.1,73.9c-1.7,0-3.2-.1-4.6-.3s-3-.6-4.7-1.1l-.2-.9c0-1,.1-2.3.1-3.7,0-1.5,0-2.9-.1-4.4s-.2-2.6-.3-3.6l-3.4-39.4h12.3l2.9,35.6c.2,1.8.3,3.6.3,5.2v4.4l-2.4-3.1c.6.1,1.2.3,1.8.3.6,0,1.2.1,1.8.1,2,0,3.6-.4,4.7-1.1s2.1-1.8,2.8-3.2c.7-1.3,1.3-2.9,1.7-4.6l6.6-23.2,2.3,23.2-1.7,5.1c-1,3.1-2.4,5.7-4.2,7.9-1.8,2.2-4,3.8-6.6,5s-5.7,1.7-9.1,1.7h0ZM311.3,73.9c-1.9,0-3.9-.1-5.8-.4s-3.8-.6-5.6-1v-.9c0-1.2,0-2.4,0-3.7s0-2.6,0-3.9c0-1.3,0-2.6-.2-3.9l-3.6-39.7h11.7l3,35.6c0,1.8.1,3.6.2,5.2s0,3.2,0,4.4l-4.4-3.2c.9.1,1.7.3,2.5.4.8,0,1.6.1,2.5.1,1.9,0,3.6-.3,4.9-1,1.3-.6,2.4-1.6,3.1-2.8.8-1.2,1.3-2.7,1.5-4.5l5.3-34.3h12.3l-5.7,35.3c-.6,4.2-1.9,7.6-3.8,10.3-1.9,2.7-4.3,4.7-7.3,5.9-3,1.3-6.4,1.9-10.4,1.9h0Z"/>
    <path class="st0" d="M338.3,53.1c0-4.7.8-8.7,2.5-11.8s4-5.4,6.9-7c2.9-1.5,6.3-2.3,10.1-2.3s7.1.8,10.1,2.3c2.9,1.5,5.3,3.9,6.9,7,1.7,3.1,2.5,7,2.5,11.8s-.8,8.6-2.5,11.7c-1.7,3.1-4,5.4-6.9,7-3,1.5-6.3,2.3-10.1,2.3s-7.2-.8-10.2-2.3c-3-1.5-5.2-3.9-6.9-7-1.6-3.1-2.5-7-2.5-11.7h0ZM350.7,53.1c0,3.8.6,6.7,1.8,8.7,1.2,2,3,2.9,5.4,2.9s4.2-1,5.4-2.9c1.2-2,1.8-4.8,1.8-8.7s-.6-6.8-1.8-8.7c-1.2-2-3-2.9-5.4-2.9s-4.2,1-5.4,2.9c-1.2,2-1.8,4.9-1.8,8.7Z"/>
    <path class="st0" d="M382,73.2v-25.8c0-1,0-2.2,0-3.8,0-1.5,0-3.1-.2-4.5s-.3-2.7-.4-3.6l.2-.6c1.3-.5,2.8-.9,4.5-1.3,1.7-.4,3.5-.7,5.6-1,2-.3,4.3-.4,6.7-.4s1.6,0,2.8,0c1.2,0,2.4.2,3.8.4v10.1h-.8c-.8-.2-1.6-.4-2.5-.5s-1.8-.2-2.7-.2c-1.5,0-3,.1-4.3.4-1.3.3-2.5.6-3.4,1.1l1.7-2.9c.8,1.2,1.2,3.7,1.2,7.5v24.9h-12.2Z"/>
    <path class="st0" d="M420.7,73.2h-12.2V29.7c0-1,0-2.2,0-3.7,0-1.5,0-3-.2-4.4s-.3-2.6-.4-3.5l.2-.6h12.7v55.7h0ZM418.5,52.2l15-19.1h12.8v.9c-.5.4-1,1-1.7,1.8-.7.8-1.4,1.6-2.1,2.5s-1.4,1.7-2,2.5l-12.7,14.7v-8.2c0,0,13.5,18.6,13.5,18.6.9,1.2,1.9,2.4,2.9,3.7,1.1,1.2,1.9,2.1,2.6,2.7v.9h-13.8l-14.4-21h0Z"/>
    <path class="st0" d="M456.9,43.1v-10h28.3v10h-28.3ZM479.9,73.8c-3.4,0-6.3-.5-8.8-1.4-2.5-1-4.5-2.6-5.9-4.8-1.4-2.3-2.1-5.3-2.1-9.2V23.1h12.2v34.3c0,2.2.5,3.8,1.6,4.8s2.7,1.4,4.9,1.4,1.6,0,2.4-.3c.8-.2,1.5-.4,2.1-.7h.8v10.1c-1,.3-2.1.6-3.2.8-1.1.2-2.4.3-3.9.3h0Z"/>
    <path class="st0" d="M488.2,53.1c0-4.7.8-8.7,2.5-11.8s4-5.4,6.9-7c2.9-1.5,6.3-2.3,10.1-2.3s7.1.8,10.1,2.3c2.9,1.5,5.3,3.9,6.9,7,1.7,3.1,2.5,7,2.5,11.8s-.8,8.6-2.5,11.7c-1.7,3.1-4,5.4-6.9,7-3,1.5-6.3,2.3-10.1,2.3s-7.2-.8-10.2-2.3c-3-1.5-5.2-3.9-6.9-7-1.6-3.1-2.5-7-2.5-11.7h0ZM500.5,53.1c0,3.8.6,6.7,1.8,8.7s3,2.9,5.4,2.9,4.2-1,5.4-2.9c1.2-2,1.8-4.8,1.8-8.7s-.6-6.8-1.8-8.7-3-2.9-5.4-2.9-4.2,1-5.4,2.9-1.8,4.9-1.8,8.7Z"/>
    <path class="st0" d="M280.1,134.4c-1.7,0-3.2-.1-4.6-.3s-3-.6-4.7-1.1l-.2-.9c0-1,.1-2.3.1-3.7,0-1.5,0-2.9-.1-4.4,0-1.4-.2-2.6-.3-3.6l-3.4-39.4h12.3l2.9,35.6c.2,1.8.3,3.6.3,5.2v4.4l-2.4-3.1c.6.1,1.2.3,1.8.3.6,0,1.2.1,1.8.1,2,0,3.6-.4,4.7-1.1s2.1-1.8,2.8-3.2c.7-1.3,1.3-2.9,1.7-4.6l6.6-23.2,2.3,23.2-1.7,5.1c-1,3.1-2.4,5.7-4.2,7.9-1.8,2.2-4,3.8-6.6,5-2.6,1.1-5.7,1.7-9.1,1.7h0ZM311.3,134.4c-1.9,0-3.9-.1-5.8-.4s-3.8-.6-5.6-1v-.9c0-1.2,0-2.4,0-3.7s0-2.6,0-3.9c0-1.3,0-2.6-.2-3.9l-3.6-39.7h11.7l3,35.6c0,1.8.1,3.6.2,5.2,0,1.7,0,3.2,0,4.4l-4.4-3.2c.9.1,1.7.3,2.5.4.8,0,1.6.1,2.5.1,1.9,0,3.6-.3,4.9-1,1.3-.6,2.4-1.6,3.1-2.8.8-1.2,1.3-2.7,1.5-4.5l5.3-34.3h12.3l-5.7,35.3c-.6,4.2-1.9,7.6-3.8,10.3-1.9,2.7-4.3,4.7-7.3,5.9-3,1.3-6.4,1.9-10.4,1.9h0Z"/>
    <path class="st0" d="M356.4,134.6c-6.1,0-10.7-1-13.8-2.9-3.1-1.9-4.6-5.2-4.6-9.9s.7-5.4,2.1-7.3c1.4-1.9,3.4-3.2,5.8-4.1,2.5-.9,5.3-1.3,8.5-1.3s3,0,4.3.3c1.3.2,2.5.4,3.7.7v7.5c-.7-.2-1.6-.5-2.8-.7-1.2-.2-2.3-.3-3.3-.3-2.4,0-4.3.4-5.4,1.1s-1.8,2-1.8,3.7.6,2.9,1.8,3.6c1.2.7,2.8,1,5,1s2.8-.2,4.1-.5c1.3-.3,2.5-.9,3.4-1.6l-1.4,3.6c-.3-.8-.6-1.5-.8-2.1-.2-.6-.3-1.3-.4-2,0-.7-.1-1.6-.2-2.6,0-1,0-2.3,0-3.8v-7.7c0-2-.3-3.5-1-4.6s-1.6-1.8-2.9-2.2c-1.3-.4-3-.6-4.9-.6s-3.9.2-5.6.6c-1.8.4-3.2.8-4.3,1.4h-.7v-9.8c1.7-.5,3.5-.9,5.6-1.2,2-.3,4.2-.5,6.5-.5s5.4.3,7.7.8c2.4.5,4.4,1.5,6.1,2.7,1.7,1.3,3.1,3.1,4,5.4.9,2.3,1.4,5.2,1.4,8.8v8.9c0,1,0,2.3,0,3.8,0,1.5.1,3,.2,4.5s.3,2.6.5,3.5l-.3.6c-1.6.6-3.3,1.2-5.1,1.6-1.8.5-3.7.8-5.6,1.1-1.9.3-3.9.4-5.9.4h0Z"/>
    <path class="st0" d="M378.9,133.7v-24.8c0-1,0-2.2,0-3.8,0-1.5,0-3.1-.2-4.5-.1-1.5-.3-2.7-.4-3.6l.2-.6c1.5-.7,3.3-1.3,5.2-1.9,2-.6,4-1.1,6.2-1.5,2.2-.4,4.4-.6,6.5-.6s4.7.3,7,.8,4.3,1.5,6.1,2.8c1.8,1.3,3.3,3.2,4.3,5.6,1.1,2.4,1.6,5.4,1.6,9.1v22.9h-12.2v-22.4c0-2.3-.3-4.1-1-5.3-.6-1.2-1.6-2.1-2.7-2.6-1.2-.5-2.5-.7-4-.7s-2.6.2-3.8.5c-1.2.3-2.3.7-3.2,1l1.7-2.9c.3.7.6,1.7.7,2.9.1,1.2.2,2.7.2,4.5v24.9h-12.2Z"/>
    <path class="st0" d="M441.4,134.6c-4.4,0-8.2-.7-11.4-2.1-3.2-1.4-5.8-3.7-7.5-6.8-1.8-3.1-2.7-7.1-2.7-12.1s.8-8.1,2.5-11.2c1.6-3.1,4-5.5,7-7.2,3-1.7,6.6-2.6,10.6-2.6,1.8,0,3.2,0,4.5.4,1.2.3,2.1.6,2.6.8v9.4c-.7-.2-1.4-.5-2.2-.7-.8-.2-1.7-.3-2.8-.3-3.3,0-5.8,1-7.4,3-1.6,2-2.4,4.8-2.4,8.4s.3,4.2,1,6c.6,1.7,1.7,3.1,3.1,4.1,1.4,1,3.3,1.5,5.5,1.5s2.4,0,3.2-.3c.8-.2,1.5-.4,2.1-.7l-.8,3.2c-.5-.8-.8-1.8-.9-3s-.1-2.5-.1-3.9v-28.7c0-1.3,0-2.8-.1-4.5,0-1.7-.1-3.4-.2-5s-.2-2.7-.4-3.5l.2-.6h12.7v41.5c0,1,0,2.2,0,3.7,0,1.5,0,3,.1,4.4,0,1.4.2,2.6.4,3.5l-.3.6c-1.9.8-4.3,1.5-6.9,2.1s-5.8.8-9.3.8h0Z"/>
    <path class="st0" d="M484.5,134.5c-3.4,0-6.5-.4-9.3-1.2s-5.3-2-7.3-3.6c-2-1.6-3.5-3.8-4.6-6.5s-1.6-5.9-1.6-9.7.8-8.2,2.4-11.3,3.8-5.6,6.7-7.2c2.9-1.7,6.3-2.5,10.3-2.5s7.8,1,10.5,2.9c2.7,1.9,4.7,4.5,5.9,7.8,1.2,3.3,1.7,7.1,1.5,11.3v2.6h-29.8v-7.6h18.1v-.4c0-2.4-.5-4.3-1.6-5.7-1-1.3-2.7-2-4.9-2s-2.7.3-3.7,1c-1,.7-1.8,1.8-2.4,3.4s-.9,3.7-.9,6.5v2.3c0,2.6.5,4.6,1.5,6s2.4,2.5,4.1,3.1c1.8.6,3.8.9,6.2.9s4.1-.2,5.8-.7c1.8-.4,3.1-1,4.1-1.5h.7v10c-1.4.6-3,1.1-4.9,1.4-1.9.3-4.2.5-6.8.5h0Z"/>
    <path class="st0" d="M503.5,133.7v-25.8c0-1,0-2.2,0-3.8,0-1.5,0-3.1-.2-4.5s-.3-2.7-.4-3.6l.2-.6c1.3-.5,2.8-.9,4.5-1.3,1.7-.4,3.5-.7,5.6-1,2-.3,4.3-.4,6.7-.4s1.6,0,2.8,0c1.2,0,2.4.2,3.8.4v10.1h-.8c-.8-.2-1.6-.4-2.5-.5s-1.8-.2-2.7-.2c-1.5,0-3,.1-4.3.4-1.3.3-2.5.6-3.4,1.1l1.7-2.9c.8,1.2,1.2,3.7,1.2,7.5v24.9h-12.2Z"/>
  </g>
  <g class="st1">
    <text class="st2" transform="translate(238.8 14.2) scale(1.2 1)"><tspan x="0" y="0">TM</tspan></text>
  </g>
</svg>